<?xml version="1.0" encoding="iso-8859-1"?>
<!-- Generator: Adobe Illustrator 19.0.0, SVG Export Plug-In . SVG Version: 6.00 Build 0)  -->
<svg version="1.1" id="Layer_1" xmlns="http://www.w3.org/2000/svg" xmlns:xlink="http://www.w3.org/1999/xlink" x="0px" y="0px"
	 viewBox="0 0 492.308 492.308" style="enable-background:new 0 0 492.308 492.308;" xml:space="preserve">
<g>
	<g>
		<path d="M363.731,32.481v53.418h-44.664l-98.096-29.034L59.942,56.462c-23.048,0-41.808,18.755-41.808,41.812
			c0,10.406,3.96,19.816,10.273,27.141c-13.227,7.028-22.359,20.788-22.359,36.782c0,12.89,5.987,24.29,15.185,31.966
			c-9.197,7.675-15.185,19.075-15.185,31.962c0,11.483,4.662,21.892,12.18,29.456C7.239,263.121,0,275.749,0,290.053
			c0,23.058,18.76,41.813,41.808,41.813l114.904,0.063c-10.51,28.942-12.99,58.5-13.067,79.452
			c-0.048,12.899,4.961,25.053,14.096,34.221c9.135,9.173,21.279,14.226,34.192,14.226c26.615,0,48.269-21.654,48.269-48.269v-3.457
			c12.644-81.447,82.048-103.827,91.933-106.615h31.596v31.317h128.577V32.481H363.731z M363.731,281.793h-32.894l-2.365,0.289
			c-0.923,0.226-92.837,24.043-107.856,123.803l-0.106,5.673c0,15.76-12.817,28.577-28.577,28.577
			c-7.635,0-14.827-2.995-20.24-8.433c-5.413-5.433-8.385-12.625-8.356-20.255c0.077-22.375,3.087-55.317,17-85.202l6.519-13.99
			l-145.038-0.082c-12.202,0-22.125-9.923-22.125-22.12c0-12.192,9.923-22.115,22.125-22.115h6.038h44.933v-19.692H47.856
			c-12.192,0-22.115-9.923-22.115-22.12c0-12.192,9.923-22.115,22.115-22.115h55.01h6.048v-19.692h-6.048h-55.01
			c-12.192,0-22.115-9.923-22.115-22.12c0-12.192,9.923-22.115,22.115-22.115h12.087h40.913v-19.692H59.942
			c-12.192,0-22.115-9.923-22.115-22.115c0-12.197,9.923-22.12,22.115-22.12H216.75l98.096,29.034l48.885,0.336V281.793z
			 M472.615,313.111h-89.192V52.173h89.192V313.111z"/>
	</g>
</g>
<g>
</g>
<g>
</g>
<g>
</g>
<g>
</g>
<g>
</g>
<g>
</g>
<g>
</g>
<g>
</g>
<g>
</g>
<g>
</g>
<g>
</g>
<g>
</g>
<g>
</g>
<g>
</g>
<g>
</g>
</svg>
